<mxfile host="app.diagrams.net" modified="2024-11-11T12:22:44.855Z" agent="Mozilla/5.0 (Windows NT 10.0; Win64; x64) AppleWebKit/537.36 (KHTML, like Gecko) Chrome/130.0.0.0 Safari/537.36" etag="ZTNWrD2n2wZUrS1PiDrf" version="24.1.0" type="device">
  <diagram name="Seite-1" id="T8kUpKk5uT6TYN9VajuS">
    <mxGraphModel dx="1430" dy="763" grid="1" gridSize="10" guides="1" tooltips="1" connect="1" arrows="1" fold="1" page="1" pageScale="1" pageWidth="827" pageHeight="1169" math="0" shadow="0">
      <root>
        <mxCell id="0" />
        <mxCell id="1" parent="0" />
        <mxCell id="eahgXWWQLo00gc5rRMP3-1" value="" style="rounded=0;whiteSpace=wrap;html=1;" vertex="1" parent="1">
          <mxGeometry x="270" y="200" width="810" height="480" as="geometry" />
        </mxCell>
        <mxCell id="eahgXWWQLo00gc5rRMP3-2" value="OrangeHRM" style="text;html=1;align=center;verticalAlign=middle;whiteSpace=wrap;rounded=0;" vertex="1" parent="1">
          <mxGeometry x="300" y="210" width="60" height="30" as="geometry" />
        </mxCell>
        <mxCell id="eahgXWWQLo00gc5rRMP3-3" style="edgeStyle=orthogonalEdgeStyle;rounded=0;orthogonalLoop=1;jettySize=auto;html=1;entryX=0.512;entryY=1.103;entryDx=0;entryDy=0;entryPerimeter=0;" edge="1" parent="1" target="eahgXWWQLo00gc5rRMP3-18">
          <mxGeometry relative="1" as="geometry">
            <mxPoint x="750.5885714285714" y="400" as="sourcePoint" />
            <mxPoint x="870" y="322.58000000000004" as="targetPoint" />
            <Array as="points">
              <mxPoint x="751" y="320" />
              <mxPoint x="802" y="320" />
            </Array>
          </mxGeometry>
        </mxCell>
        <mxCell id="eahgXWWQLo00gc5rRMP3-4" value="has" style="edgeLabel;html=1;align=center;verticalAlign=middle;resizable=0;points=[];" vertex="1" connectable="0" parent="eahgXWWQLo00gc5rRMP3-3">
          <mxGeometry x="-0.3744" relative="1" as="geometry">
            <mxPoint as="offset" />
          </mxGeometry>
        </mxCell>
        <mxCell id="eahgXWWQLo00gc5rRMP3-5" value="&lt;div&gt;&amp;lt;&amp;lt;Entity&amp;gt;&amp;gt;&lt;/div&gt;Employee" style="swimlane;fontStyle=0;childLayout=stackLayout;horizontal=1;startSize=30;horizontalStack=0;resizeParent=1;resizeParentMax=0;resizeLast=0;collapsible=1;marginBottom=0;whiteSpace=wrap;html=1;" vertex="1" parent="1">
          <mxGeometry x="680" y="400" width="140" height="60" as="geometry" />
        </mxCell>
        <mxCell id="eahgXWWQLo00gc5rRMP3-6" value="id:int" style="text;strokeColor=none;fillColor=none;align=left;verticalAlign=middle;spacingLeft=4;spacingRight=4;overflow=hidden;points=[[0,0.5],[1,0.5]];portConstraint=eastwest;rotatable=0;whiteSpace=wrap;html=1;" vertex="1" parent="eahgXWWQLo00gc5rRMP3-5">
          <mxGeometry y="30" width="140" height="30" as="geometry" />
        </mxCell>
        <mxCell id="eahgXWWQLo00gc5rRMP3-7" value="&lt;div&gt;&amp;lt;&amp;lt;Entity&amp;gt;&amp;gt;&lt;/div&gt;Supervisor" style="swimlane;fontStyle=0;childLayout=stackLayout;horizontal=1;startSize=30;horizontalStack=0;resizeParent=1;resizeParentMax=0;resizeLast=0;collapsible=1;marginBottom=0;whiteSpace=wrap;html=1;" vertex="1" parent="1">
          <mxGeometry x="450" y="400" width="140" height="60" as="geometry" />
        </mxCell>
        <mxCell id="eahgXWWQLo00gc5rRMP3-8" value="id:int" style="text;strokeColor=none;fillColor=none;align=left;verticalAlign=middle;spacingLeft=4;spacingRight=4;overflow=hidden;points=[[0,0.5],[1,0.5]];portConstraint=eastwest;rotatable=0;whiteSpace=wrap;html=1;" vertex="1" parent="eahgXWWQLo00gc5rRMP3-7">
          <mxGeometry y="30" width="140" height="30" as="geometry" />
        </mxCell>
        <mxCell id="eahgXWWQLo00gc5rRMP3-9" style="edgeStyle=orthogonalEdgeStyle;rounded=0;orthogonalLoop=1;jettySize=auto;html=1;entryX=-0.002;entryY=0;entryDx=0;entryDy=0;entryPerimeter=0;endArrow=block;endFill=0;strokeWidth=1;" edge="1" parent="1" source="eahgXWWQLo00gc5rRMP3-7" target="eahgXWWQLo00gc5rRMP3-6">
          <mxGeometry relative="1" as="geometry">
            <Array as="points">
              <mxPoint x="620" y="430" />
              <mxPoint x="620" y="430" />
            </Array>
          </mxGeometry>
        </mxCell>
        <mxCell id="eahgXWWQLo00gc5rRMP3-10" style="edgeStyle=orthogonalEdgeStyle;rounded=0;orthogonalLoop=1;jettySize=auto;html=1;startArrow=classic;startFill=1;exitX=0.515;exitY=0.978;exitDx=0;exitDy=0;exitPerimeter=0;" edge="1" parent="1" source="eahgXWWQLo00gc5rRMP3-6">
          <mxGeometry relative="1" as="geometry">
            <mxPoint x="451" y="430" as="targetPoint" />
            <Array as="points">
              <mxPoint x="752" y="570" />
              <mxPoint x="390" y="570" />
              <mxPoint x="390" y="430" />
            </Array>
          </mxGeometry>
        </mxCell>
        <mxCell id="eahgXWWQLo00gc5rRMP3-11" value="has" style="edgeLabel;html=1;align=center;verticalAlign=middle;resizable=0;points=[];" vertex="1" connectable="0" parent="eahgXWWQLo00gc5rRMP3-10">
          <mxGeometry x="-0.2883" y="-2" relative="1" as="geometry">
            <mxPoint x="-52" y="2" as="offset" />
          </mxGeometry>
        </mxCell>
        <mxCell id="eahgXWWQLo00gc5rRMP3-12" value="0...n" style="edgeLabel;html=1;align=center;verticalAlign=middle;resizable=0;points=[];" vertex="1" connectable="0" parent="eahgXWWQLo00gc5rRMP3-10">
          <mxGeometry x="0.7358" y="-2" relative="1" as="geometry">
            <mxPoint x="-2" y="27" as="offset" />
          </mxGeometry>
        </mxCell>
        <mxCell id="eahgXWWQLo00gc5rRMP3-13" value="1...n" style="edgeLabel;html=1;align=center;verticalAlign=middle;resizable=0;points=[];" vertex="1" connectable="0" parent="eahgXWWQLo00gc5rRMP3-10">
          <mxGeometry x="-0.5863" y="-1" relative="1" as="geometry">
            <mxPoint x="50" y="-39" as="offset" />
          </mxGeometry>
        </mxCell>
        <mxCell id="eahgXWWQLo00gc5rRMP3-14" style="edgeStyle=orthogonalEdgeStyle;rounded=0;orthogonalLoop=1;jettySize=auto;html=1;elbow=horizontal;" edge="1" parent="1" source="eahgXWWQLo00gc5rRMP3-5" target="eahgXWWQLo00gc5rRMP3-5">
          <mxGeometry relative="1" as="geometry" />
        </mxCell>
        <mxCell id="eahgXWWQLo00gc5rRMP3-15" value="Depends on" style="edgeLabel;html=1;align=center;verticalAlign=middle;resizable=0;points=[];" vertex="1" connectable="0" parent="eahgXWWQLo00gc5rRMP3-14">
          <mxGeometry x="-0.4196" relative="1" as="geometry">
            <mxPoint x="47" y="10" as="offset" />
          </mxGeometry>
        </mxCell>
        <mxCell id="eahgXWWQLo00gc5rRMP3-16" value="0...n" style="edgeLabel;html=1;align=center;verticalAlign=middle;resizable=0;points=[];" vertex="1" connectable="0" parent="eahgXWWQLo00gc5rRMP3-14">
          <mxGeometry x="-0.6673" y="3" relative="1" as="geometry">
            <mxPoint x="20" y="33" as="offset" />
          </mxGeometry>
        </mxCell>
        <mxCell id="eahgXWWQLo00gc5rRMP3-17" value="&lt;div&gt;&amp;lt;&amp;lt;Entity&amp;gt;&amp;gt;&lt;/div&gt;Leave" style="swimlane;fontStyle=0;childLayout=stackLayout;horizontal=1;startSize=30;horizontalStack=0;resizeParent=1;resizeParentMax=0;resizeLast=0;collapsible=1;marginBottom=0;whiteSpace=wrap;html=1;" vertex="1" parent="1">
          <mxGeometry x="730" y="230" width="140" height="60" as="geometry" />
        </mxCell>
        <mxCell id="eahgXWWQLo00gc5rRMP3-18" value="id:int" style="text;strokeColor=none;fillColor=none;align=left;verticalAlign=middle;spacingLeft=4;spacingRight=4;overflow=hidden;points=[[0,0.5],[1,0.5]];portConstraint=eastwest;rotatable=0;whiteSpace=wrap;html=1;" vertex="1" parent="eahgXWWQLo00gc5rRMP3-17">
          <mxGeometry y="30" width="140" height="30" as="geometry" />
        </mxCell>
        <mxCell id="eahgXWWQLo00gc5rRMP3-19" value="&lt;div&gt;&amp;lt;&amp;lt;Entity&amp;gt;&amp;gt;&lt;/div&gt;Customer" style="swimlane;fontStyle=0;childLayout=stackLayout;horizontal=1;startSize=30;horizontalStack=0;resizeParent=1;resizeParentMax=0;resizeLast=0;collapsible=1;marginBottom=0;whiteSpace=wrap;html=1;" vertex="1" parent="1">
          <mxGeometry x="500" y="590" width="140" height="60" as="geometry" />
        </mxCell>
        <mxCell id="eahgXWWQLo00gc5rRMP3-20" value="customerID: int" style="text;strokeColor=none;fillColor=none;align=left;verticalAlign=middle;spacingLeft=4;spacingRight=4;overflow=hidden;points=[[0,0.5],[1,0.5]];portConstraint=eastwest;rotatable=0;whiteSpace=wrap;html=1;" vertex="1" parent="eahgXWWQLo00gc5rRMP3-19">
          <mxGeometry y="30" width="140" height="30" as="geometry" />
        </mxCell>
        <mxCell id="eahgXWWQLo00gc5rRMP3-21" value="&lt;div&gt;&amp;lt;&amp;lt;Entity&amp;gt;&amp;gt;&lt;/div&gt;Key Performance Indicator" style="swimlane;fontStyle=0;childLayout=stackLayout;horizontal=1;startSize=30;horizontalStack=0;resizeParent=1;resizeParentMax=0;resizeLast=0;collapsible=1;marginBottom=0;whiteSpace=wrap;html=1;" vertex="1" parent="1">
          <mxGeometry x="530" y="220" width="160" height="60" as="geometry" />
        </mxCell>
        <mxCell id="eahgXWWQLo00gc5rRMP3-22" value="id: int" style="text;strokeColor=none;fillColor=none;align=left;verticalAlign=middle;spacingLeft=4;spacingRight=4;overflow=hidden;points=[[0,0.5],[1,0.5]];portConstraint=eastwest;rotatable=0;whiteSpace=wrap;html=1;" vertex="1" parent="eahgXWWQLo00gc5rRMP3-21">
          <mxGeometry y="30" width="160" height="30" as="geometry" />
        </mxCell>
        <mxCell id="eahgXWWQLo00gc5rRMP3-23" style="edgeStyle=orthogonalEdgeStyle;rounded=0;orthogonalLoop=1;jettySize=auto;html=1;entryX=0.489;entryY=0.965;entryDx=0;entryDy=0;entryPerimeter=0;" edge="1" parent="1" source="eahgXWWQLo00gc5rRMP3-5" target="eahgXWWQLo00gc5rRMP3-22">
          <mxGeometry relative="1" as="geometry">
            <Array as="points">
              <mxPoint x="720" y="370" />
              <mxPoint x="608" y="370" />
            </Array>
          </mxGeometry>
        </mxCell>
        <mxCell id="eahgXWWQLo00gc5rRMP3-24" value="isAssigned" style="edgeLabel;html=1;align=center;verticalAlign=middle;resizable=0;points=[];" vertex="1" connectable="0" parent="eahgXWWQLo00gc5rRMP3-23">
          <mxGeometry x="0.2773" y="-2" relative="1" as="geometry">
            <mxPoint x="40" y="2" as="offset" />
          </mxGeometry>
        </mxCell>
        <mxCell id="eahgXWWQLo00gc5rRMP3-25" value="1...n" style="edgeLabel;html=1;align=center;verticalAlign=middle;resizable=0;points=[];" vertex="1" connectable="0" parent="eahgXWWQLo00gc5rRMP3-23">
          <mxGeometry x="0.7634" y="2" relative="1" as="geometry">
            <mxPoint as="offset" />
          </mxGeometry>
        </mxCell>
        <mxCell id="eahgXWWQLo00gc5rRMP3-26" style="edgeStyle=orthogonalEdgeStyle;rounded=0;orthogonalLoop=1;jettySize=auto;html=1;entryX=1;entryY=0.5;entryDx=0;entryDy=0;" edge="1" parent="1" source="eahgXWWQLo00gc5rRMP3-28" target="eahgXWWQLo00gc5rRMP3-19">
          <mxGeometry relative="1" as="geometry" />
        </mxCell>
        <mxCell id="eahgXWWQLo00gc5rRMP3-27" value="0...n" style="edgeLabel;html=1;align=center;verticalAlign=middle;resizable=0;points=[];" vertex="1" connectable="0" parent="eahgXWWQLo00gc5rRMP3-26">
          <mxGeometry x="0.309" y="-2" relative="1" as="geometry">
            <mxPoint x="6" y="-8" as="offset" />
          </mxGeometry>
        </mxCell>
        <mxCell id="eahgXWWQLo00gc5rRMP3-28" value="&lt;div&gt;&amp;lt;&amp;lt;Entity&amp;gt;&amp;gt;&lt;/div&gt;Organization" style="swimlane;fontStyle=0;childLayout=stackLayout;horizontal=1;startSize=30;horizontalStack=0;resizeParent=1;resizeParentMax=0;resizeLast=0;collapsible=1;marginBottom=0;whiteSpace=wrap;html=1;" vertex="1" parent="1">
          <mxGeometry x="720" y="600" width="140" height="60" as="geometry" />
        </mxCell>
        <mxCell id="eahgXWWQLo00gc5rRMP3-29" value="id:int" style="text;strokeColor=none;fillColor=none;align=left;verticalAlign=middle;spacingLeft=4;spacingRight=4;overflow=hidden;points=[[0,0.5],[1,0.5]];portConstraint=eastwest;rotatable=0;whiteSpace=wrap;html=1;" vertex="1" parent="eahgXWWQLo00gc5rRMP3-28">
          <mxGeometry y="30" width="140" height="30" as="geometry" />
        </mxCell>
        <mxCell id="eahgXWWQLo00gc5rRMP3-30" style="edgeStyle=orthogonalEdgeStyle;rounded=0;orthogonalLoop=1;jettySize=auto;html=1;entryX=0.79;entryY=0.978;entryDx=0;entryDy=0;entryPerimeter=0;endArrow=classic;endFill=1;startArrow=classic;startFill=1;" edge="1" parent="1" source="eahgXWWQLo00gc5rRMP3-28" target="eahgXWWQLo00gc5rRMP3-6">
          <mxGeometry relative="1" as="geometry" />
        </mxCell>
        <mxCell id="eahgXWWQLo00gc5rRMP3-31" value="0...n" style="edgeLabel;html=1;align=center;verticalAlign=middle;resizable=0;points=[];" vertex="1" connectable="0" parent="eahgXWWQLo00gc5rRMP3-30">
          <mxGeometry x="0.6764" y="2" relative="1" as="geometry">
            <mxPoint as="offset" />
          </mxGeometry>
        </mxCell>
        <mxCell id="eahgXWWQLo00gc5rRMP3-32" value="1...1" style="edgeLabel;html=1;align=center;verticalAlign=middle;resizable=0;points=[];" vertex="1" connectable="0" parent="eahgXWWQLo00gc5rRMP3-30">
          <mxGeometry x="-0.6151" y="1" relative="1" as="geometry">
            <mxPoint as="offset" />
          </mxGeometry>
        </mxCell>
        <mxCell id="eahgXWWQLo00gc5rRMP3-33" value="has" style="edgeLabel;html=1;align=center;verticalAlign=middle;resizable=0;points=[];" vertex="1" connectable="0" parent="eahgXWWQLo00gc5rRMP3-30">
          <mxGeometry x="0.1485" y="3" relative="1" as="geometry">
            <mxPoint x="2" y="9" as="offset" />
          </mxGeometry>
        </mxCell>
        <mxCell id="eahgXWWQLo00gc5rRMP3-37" style="edgeStyle=orthogonalEdgeStyle;rounded=0;orthogonalLoop=1;jettySize=auto;html=1;entryX=1;entryY=0.25;entryDx=0;entryDy=0;dashed=1;" edge="1" parent="1" source="eahgXWWQLo00gc5rRMP3-34" target="eahgXWWQLo00gc5rRMP3-17">
          <mxGeometry relative="1" as="geometry" />
        </mxCell>
        <mxCell id="eahgXWWQLo00gc5rRMP3-38" style="edgeStyle=orthogonalEdgeStyle;rounded=0;orthogonalLoop=1;jettySize=auto;html=1;entryX=1;entryY=0.5;entryDx=0;entryDy=0;dashed=1;" edge="1" parent="1" source="eahgXWWQLo00gc5rRMP3-34" target="eahgXWWQLo00gc5rRMP3-28">
          <mxGeometry relative="1" as="geometry">
            <Array as="points">
              <mxPoint x="940" y="630" />
            </Array>
          </mxGeometry>
        </mxCell>
        <mxCell id="eahgXWWQLo00gc5rRMP3-39" style="edgeStyle=orthogonalEdgeStyle;rounded=0;orthogonalLoop=1;jettySize=auto;html=1;dashed=1;" edge="1" parent="1" source="eahgXWWQLo00gc5rRMP3-34" target="eahgXWWQLo00gc5rRMP3-19">
          <mxGeometry relative="1" as="geometry">
            <Array as="points">
              <mxPoint x="940" y="670" />
              <mxPoint x="580" y="670" />
            </Array>
          </mxGeometry>
        </mxCell>
        <mxCell id="eahgXWWQLo00gc5rRMP3-40" style="edgeStyle=orthogonalEdgeStyle;rounded=0;orthogonalLoop=1;jettySize=auto;html=1;entryX=0.5;entryY=0;entryDx=0;entryDy=0;dashed=1;" edge="1" parent="1" source="eahgXWWQLo00gc5rRMP3-34" target="eahgXWWQLo00gc5rRMP3-7">
          <mxGeometry relative="1" as="geometry">
            <Array as="points">
              <mxPoint x="520" y="340" />
            </Array>
          </mxGeometry>
        </mxCell>
        <mxCell id="eahgXWWQLo00gc5rRMP3-34" value="&lt;div&gt;&amp;lt;&amp;lt;Control&amp;gt;&amp;gt;&lt;/div&gt;OrangeHRM" style="swimlane;fontStyle=0;childLayout=stackLayout;horizontal=1;startSize=30;horizontalStack=0;resizeParent=1;resizeParentMax=0;resizeLast=0;collapsible=1;marginBottom=0;whiteSpace=wrap;html=1;" vertex="1" parent="1">
          <mxGeometry x="870" y="330" width="140" height="60" as="geometry" />
        </mxCell>
        <mxCell id="eahgXWWQLo00gc5rRMP3-36" style="edgeStyle=orthogonalEdgeStyle;rounded=0;orthogonalLoop=1;jettySize=auto;html=1;entryX=0.663;entryY=0.034;entryDx=0;entryDy=0;entryPerimeter=0;dashed=1;" edge="1" parent="1" source="eahgXWWQLo00gc5rRMP3-34" target="eahgXWWQLo00gc5rRMP3-5">
          <mxGeometry relative="1" as="geometry">
            <Array as="points">
              <mxPoint x="773" y="360" />
            </Array>
          </mxGeometry>
        </mxCell>
        <mxCell id="eahgXWWQLo00gc5rRMP3-41" style="edgeStyle=orthogonalEdgeStyle;rounded=0;orthogonalLoop=1;jettySize=auto;html=1;entryX=0.683;entryY=1;entryDx=0;entryDy=0;entryPerimeter=0;dashed=1;" edge="1" parent="1" target="eahgXWWQLo00gc5rRMP3-22">
          <mxGeometry relative="1" as="geometry">
            <mxPoint x="870" y="340" as="sourcePoint" />
            <mxPoint x="639.24" y="290.00000000000006" as="targetPoint" />
            <Array as="points">
              <mxPoint x="639" y="340" />
            </Array>
          </mxGeometry>
        </mxCell>
      </root>
    </mxGraphModel>
  </diagram>
</mxfile>
